<svg width="187" height="188" viewBox="0 0 187 188" fill="none" xmlns="http://www.w3.org/2000/svg">
<circle cx="166.5" cy="20.5" r="20.5" fill="white"/>
<path fill-rule="evenodd" clip-rule="evenodd" d="M166 51C166.672 51 167.339 50.9779 168 50.9344V188H48C21.4903 188 0 166.51 0 140V20H136.016C136.005 20.332 136 20.6654 136 21C136 37.5685 149.431 51 166 51ZM33 64C28.0294 64 24 68.0294 24 73C24 77.9706 28.0294 82 33 82H135C139.971 82 144 77.9706 144 73C144 68.0294 139.971 64 135 64H33ZM34 104C34 99.0294 38.0294 95 43 95H125C129.971 95 134 99.0294 134 104C134 108.971 129.971 113 125 113H43C38.0294 113 34 108.971 34 104ZM33 126C28.0294 126 24 130.029 24 135C24 139.971 28.0294 144 33 144H135C139.971 144 144 139.971 144 135C144 130.029 139.971 126 135 126H33Z" fill="white"/>
</svg>
