<svg width="600" height="600" viewBox="0 0 600 600" fill="none" xmlns="http://www.w3.org/2000/svg">
<rect width="600" height="600" fill="black"/>
<path d="M188 383C190.21 383 192 381.21 192 379C192 376.79 190.21 375 188 375C185.79 375 184 376.79 184 379C184 381.21 185.79 383 188 383ZM188 385C185.33 385 180 386.34 180 389V390C180 390.55 180.45 391 181 391H195C195.55 391 196 390.55 196 390V389C196 386.34 190.67 385 188 385Z" fill="black"/>
<path d="M301 299C273.5 299 249.958 289.208 230.375 269.625C210.792 250.042 201 226.5 201 199C201 171.5 210.792 147.958 230.375 128.375C249.958 108.792 273.5 99 301 99C328.5 99 352.042 108.792 371.625 128.375C391.208 147.958 401 171.5 401 199C401 226.5 391.208 250.042 371.625 269.625C352.042 289.208 328.5 299 301 299ZM101 449V429C101 414.833 104.65 401.817 111.95 389.95C119.25 378.083 128.933 369.017 141 362.75C166.833 349.833 193.083 340.15 219.75 333.7C246.417 327.25 273.5 324.017 301 324C328.5 323.983 355.583 327.217 382.25 333.7C408.917 340.183 435.167 349.867 461 362.75C473.083 369 482.775 378.067 490.075 389.95C497.375 401.833 501.017 414.85 501 429V449C501 462.75 496.108 474.525 486.325 484.325C476.542 494.125 464.767 499.017 451 499H151C137.25 499 125.483 494.108 115.7 484.325C105.917 474.542 101.017 462.767 101 449Z" fill="white"/>
</svg>
